<mxfile host="app.diagrams.net" modified="2023-03-11T21:49:39.417Z" agent="5.0 (X11; Linux x86_64) AppleWebKit/537.36 (KHTML, like Gecko) Chrome/109.0.0.0 Safari/537.36" etag="L9rUhXYySjWLaNN_95tI" version="21.0.2" type="github">
  <diagram name="Page-1" id="sGuzA3g51q6fcSDmOtlH">
    <mxGraphModel dx="2261" dy="866" grid="1" gridSize="10" guides="1" tooltips="1" connect="1" arrows="1" fold="1" page="1" pageScale="1" pageWidth="827" pageHeight="1169" math="0" shadow="0">
      <root>
        <mxCell id="0" />
        <mxCell id="1" parent="0" />
        <mxCell id="6QAfk4vxS9SV6BwnsCQb-1" value="AI Design&lt;br&gt;Generated" style="ellipse;whiteSpace=wrap;html=1;aspect=fixed;" vertex="1" parent="1">
          <mxGeometry x="-10" y="310" width="80" height="80" as="geometry" />
        </mxCell>
        <mxCell id="6QAfk4vxS9SV6BwnsCQb-2" value="Product" style="rounded=0;whiteSpace=wrap;html=1;align=left;verticalAlign=top;fillColor=none;fontSize=16;" vertex="1" parent="1">
          <mxGeometry x="134" y="140" width="726" height="160" as="geometry" />
        </mxCell>
        <mxCell id="6QAfk4vxS9SV6BwnsCQb-3" value="Listing Page" style="rounded=0;whiteSpace=wrap;html=1;align=left;verticalAlign=top;fillColor=none;fontSize=16;" vertex="1" parent="1">
          <mxGeometry x="134" y="400" width="560" height="160" as="geometry" />
        </mxCell>
        <mxCell id="6QAfk4vxS9SV6BwnsCQb-4" value="Crop and Resize images in all formats" style="ellipse;whiteSpace=wrap;html=1;aspect=fixed;" vertex="1" parent="1">
          <mxGeometry x="160" y="180" width="80" height="80" as="geometry" />
        </mxCell>
        <mxCell id="6QAfk4vxS9SV6BwnsCQb-5" value="" style="endArrow=classic;html=1;rounded=0;" edge="1" parent="1" source="6QAfk4vxS9SV6BwnsCQb-1" target="6QAfk4vxS9SV6BwnsCQb-4">
          <mxGeometry width="50" height="50" relative="1" as="geometry">
            <mxPoint x="320" y="380" as="sourcePoint" />
            <mxPoint x="370" y="330" as="targetPoint" />
          </mxGeometry>
        </mxCell>
        <mxCell id="6QAfk4vxS9SV6BwnsCQb-6" value="Upload images on a server" style="ellipse;whiteSpace=wrap;html=1;aspect=fixed;" vertex="1" parent="1">
          <mxGeometry x="300" y="180" width="80" height="80" as="geometry" />
        </mxCell>
        <mxCell id="6QAfk4vxS9SV6BwnsCQb-7" value="Get a password protected download link" style="ellipse;whiteSpace=wrap;html=1;aspect=fixed;fontSize=11;" vertex="1" parent="1">
          <mxGeometry x="440" y="180" width="80" height="80" as="geometry" />
        </mxCell>
        <mxCell id="6QAfk4vxS9SV6BwnsCQb-9" value="" style="endArrow=classic;html=1;rounded=0;" edge="1" parent="1" source="6QAfk4vxS9SV6BwnsCQb-4" target="6QAfk4vxS9SV6BwnsCQb-6">
          <mxGeometry width="50" height="50" relative="1" as="geometry">
            <mxPoint x="63" y="328" as="sourcePoint" />
            <mxPoint x="177" y="252" as="targetPoint" />
          </mxGeometry>
        </mxCell>
        <mxCell id="6QAfk4vxS9SV6BwnsCQb-10" value="" style="endArrow=classic;html=1;rounded=0;" edge="1" parent="1" source="6QAfk4vxS9SV6BwnsCQb-6" target="6QAfk4vxS9SV6BwnsCQb-7">
          <mxGeometry width="50" height="50" relative="1" as="geometry">
            <mxPoint x="250" y="230" as="sourcePoint" />
            <mxPoint x="310" y="230" as="targetPoint" />
          </mxGeometry>
        </mxCell>
        <mxCell id="6QAfk4vxS9SV6BwnsCQb-11" value="" style="endArrow=classic;html=1;rounded=0;" edge="1" parent="1" source="6QAfk4vxS9SV6BwnsCQb-7" target="6QAfk4vxS9SV6BwnsCQb-12">
          <mxGeometry width="50" height="50" relative="1" as="geometry">
            <mxPoint x="260" y="240" as="sourcePoint" />
            <mxPoint x="320" y="240" as="targetPoint" />
          </mxGeometry>
        </mxCell>
        <mxCell id="6QAfk4vxS9SV6BwnsCQb-12" value="Generate the PDF with the download link &amp;amp; password" style="ellipse;whiteSpace=wrap;html=1;aspect=fixed;fontSize=11;" vertex="1" parent="1">
          <mxGeometry x="580" y="180" width="80" height="80" as="geometry" />
        </mxCell>
        <mxCell id="6QAfk4vxS9SV6BwnsCQb-14" value="Upload the PDF on the server" style="ellipse;whiteSpace=wrap;html=1;aspect=fixed;fontSize=11;" vertex="1" parent="1">
          <mxGeometry x="720" y="180" width="80" height="80" as="geometry" />
        </mxCell>
        <mxCell id="6QAfk4vxS9SV6BwnsCQb-15" value="" style="endArrow=classic;html=1;rounded=0;" edge="1" parent="1" source="6QAfk4vxS9SV6BwnsCQb-12" target="6QAfk4vxS9SV6BwnsCQb-14">
          <mxGeometry width="50" height="50" relative="1" as="geometry">
            <mxPoint x="530" y="230" as="sourcePoint" />
            <mxPoint x="590" y="230" as="targetPoint" />
          </mxGeometry>
        </mxCell>
        <mxCell id="6QAfk4vxS9SV6BwnsCQb-16" value="Generate short design video" style="ellipse;whiteSpace=wrap;html=1;aspect=fixed;" vertex="1" parent="1">
          <mxGeometry x="300" y="440" width="80" height="80" as="geometry" />
        </mxCell>
        <mxCell id="6QAfk4vxS9SV6BwnsCQb-17" value="" style="endArrow=classic;html=1;rounded=0;" edge="1" parent="1" source="6QAfk4vxS9SV6BwnsCQb-1" target="6QAfk4vxS9SV6BwnsCQb-18">
          <mxGeometry width="50" height="50" relative="1" as="geometry">
            <mxPoint x="72" y="336" as="sourcePoint" />
            <mxPoint x="178" y="254" as="targetPoint" />
          </mxGeometry>
        </mxCell>
        <mxCell id="6QAfk4vxS9SV6BwnsCQb-18" value="Generate all mockups with watermarker" style="ellipse;whiteSpace=wrap;html=1;aspect=fixed;" vertex="1" parent="1">
          <mxGeometry x="160" y="440" width="80" height="80" as="geometry" />
        </mxCell>
        <mxCell id="6QAfk4vxS9SV6BwnsCQb-19" value="Generate all mockups with watermarker" style="ellipse;whiteSpace=wrap;html=1;aspect=fixed;" vertex="1" parent="1">
          <mxGeometry x="580" y="440" width="80" height="80" as="geometry" />
        </mxCell>
        <mxCell id="6QAfk4vxS9SV6BwnsCQb-20" value="Upload all of these png and mp4 files on the server" style="ellipse;whiteSpace=wrap;html=1;aspect=fixed;" vertex="1" parent="1">
          <mxGeometry x="440" y="440" width="80" height="80" as="geometry" />
        </mxCell>
        <mxCell id="6QAfk4vxS9SV6BwnsCQb-21" value="" style="endArrow=classic;html=1;rounded=0;" edge="1" parent="1" source="6QAfk4vxS9SV6BwnsCQb-18" target="6QAfk4vxS9SV6BwnsCQb-16">
          <mxGeometry width="50" height="50" relative="1" as="geometry">
            <mxPoint x="72" y="384" as="sourcePoint" />
            <mxPoint x="178" y="466" as="targetPoint" />
          </mxGeometry>
        </mxCell>
        <mxCell id="6QAfk4vxS9SV6BwnsCQb-22" value="" style="endArrow=classic;html=1;rounded=0;" edge="1" parent="1" source="6QAfk4vxS9SV6BwnsCQb-16" target="6QAfk4vxS9SV6BwnsCQb-20">
          <mxGeometry width="50" height="50" relative="1" as="geometry">
            <mxPoint x="250" y="490" as="sourcePoint" />
            <mxPoint x="310" y="490" as="targetPoint" />
          </mxGeometry>
        </mxCell>
        <mxCell id="6QAfk4vxS9SV6BwnsCQb-23" value="" style="endArrow=classic;html=1;rounded=0;" edge="1" parent="1" source="6QAfk4vxS9SV6BwnsCQb-20" target="6QAfk4vxS9SV6BwnsCQb-19">
          <mxGeometry width="50" height="50" relative="1" as="geometry">
            <mxPoint x="260" y="500" as="sourcePoint" />
            <mxPoint x="320" y="500" as="targetPoint" />
          </mxGeometry>
        </mxCell>
      </root>
    </mxGraphModel>
  </diagram>
</mxfile>
